<?xml version="1.0" encoding="UTF-8"?>
<svg width="160px" height="30px" viewBox="0 0 160 30" version="1.1" xmlns="http://www.w3.org/2000/svg" xmlns:xlink="http://www.w3.org/1999/xlink">
    <!-- Generator: Sketch 54.1 (76490) - https://sketchapp.com -->
    <title>adaptable</title>
    <desc>Created with Sketch.</desc>
    <g id="Global-" stroke="none" stroke-width="1" fill="none" fill-rule="evenodd">
        <g id="Nav-(reveal-on-up-scroll)" transform="translate(-141.000000, -35.000000)" fill="#333333">
            <g id="Nav" transform="translate(141.000000, 35.000000)">
                <g id="Group-2">
                    <path d="M157.317821,20.5617097 C158.656032,20.5617097 159.740724,21.6620323 159.740724,23.019129 C159.740724,24.3762258 158.656032,25.4762258 157.317821,25.4762258 C155.97961,25.4762258 154.8946,24.3762258 154.8946,23.019129 C154.8946,21.6620323 155.97961,20.5617097 157.317821,20.5617097 Z M11.8270219,19.4084194 C12.491833,18.2729355 12.491833,16.9245484 12.491833,15.5761613 C10.8473002,15.8600323 8.92252883,16.214871 7.27799602,16.6051935 C5.59847316,16.9600323 4.16388072,17.7761613 4.16388072,19.2668065 C4.16388072,20.7922903 5.45851292,21.8922903 7.2080159,21.8922903 C9.23743936,21.8922903 10.9172803,20.8987419 11.8270219,19.4084194 Z M14.241336,7.2726129 C16.0611372,8.83390323 16.6556501,11.0339032 16.6556501,13.4113226 L16.6556501,24.9439032 L12.9816938,24.9439032 L12.9816938,22.424871 C11.1272207,24.7313226 9.2024493,25.4764839 6.22829423,25.4764839 C2.44968588,25.4764839 -0.000254473161,23.1697097 -0.000254473161,19.5858387 C-0.000254473161,17.1022903 0.944477137,15.2568065 3.32411928,14.121 C5.70344334,13.021 9.58733996,12.6306774 12.4565249,12.204871 C12.2119125,10.3955161 10.8473002,9.29519355 8.5029662,9.29519355 C6.61318489,9.29519355 4.93366203,9.93390323 3.60403976,11.2826129 L1.11974553,8.44358065 C3.11386083,6.38551613 5.5634831,5.25003226 8.85254871,5.25003226 C10.8822903,5.25003226 12.9117137,6.10164516 14.241336,7.2726129 Z M31.9466243,20.0825484 C32.8913559,18.982871 33.3112366,17.1725484 33.3112366,15.3631935 C33.3112366,13.5531935 32.8913559,11.779 31.9466243,10.6083548 C31.1065447,9.579 29.8122306,9.08222581 28.3776382,9.08222581 C26.7327873,9.08222581 25.368175,9.61480645 24.4934235,10.9277097 C23.7236421,12.0273871 23.3740596,13.6244839 23.3740596,15.3631935 C23.3740596,17.0664194 23.6539801,18.6986774 24.4237614,19.799 C25.2985129,21.1115806 26.7680954,21.6441613 28.2376779,21.6441613 C29.7422505,21.6441613 31.0368827,21.1470645 31.9466243,20.0825484 Z M32.8213757,6.84674194 L32.8213757,-3.22580645e-05 L37.0554911,-3.22580645e-05 L37.0554911,24.9438387 L33.3462266,24.9438387 L33.3462266,23.4535161 C31.8416541,24.8377097 29.8122306,25.4764194 27.6075388,25.4764194 C25.0882545,25.4764194 22.6389503,24.3764194 21.0643976,22.4248065 C19.4898449,20.4019032 18.8950139,17.9531935 18.8950139,15.3631935 C18.8950139,12.7373871 19.5948151,10.2177097 21.0643976,8.30158065 C22.6739404,6.279 25.1582346,5.24996774 27.7478171,5.24996774 C29.6372803,5.24996774 31.3867833,5.85319355 32.8213757,6.84674194 Z M50.9911093,19.4084194 C51.6559205,18.2729355 51.6559205,16.9245484 51.6559205,15.5761613 C50.0113877,15.8600323 48.0866163,16.214871 46.4420835,16.6051935 C44.7628787,16.9600323 43.3279682,17.7761613 43.3279682,19.2668065 C43.3279682,20.7922903 44.6226004,21.8922903 46.3721034,21.8922903 C48.4015268,21.8922903 50.0813678,20.8987419 50.9911093,19.4084194 Z M53.4057416,7.2726129 C55.2252247,8.83390323 55.8200557,11.0339032 55.8200557,13.4113226 L55.8200557,24.9439032 L52.1457813,24.9439032 L52.1457813,22.424871 C50.2913082,24.7313226 48.3668549,25.4764839 45.3923817,25.4764839 C41.6137734,25.4764839 39.1641511,23.1697097 39.1641511,19.5858387 C39.1641511,17.1022903 40.1088827,15.2568065 42.4882068,14.121 C44.8675308,13.021 48.7517455,12.6306774 51.6209304,12.204871 C51.376,10.3955161 50.0113877,9.29519355 47.6670537,9.29519355 C45.7772724,9.29519355 44.0977495,9.93390323 42.7681272,11.2826129 L40.283833,8.44358065 C42.2782664,6.38551613 44.7278887,5.25003226 48.0166362,5.25003226 C50.0463777,5.25003226 52.0758012,6.10164516 53.4057416,7.2726129 Z M70.6295348,19.7990323 C71.3993161,18.6987097 71.6792366,17.0664516 71.6792366,15.3632258 C71.6792366,13.6245161 71.329336,12.0274194 70.5595547,10.9277419 C69.6848032,9.61483871 68.3201909,9.08225806 66.67534,9.08225806 C65.2410656,9.08225806 63.9464334,9.57903226 63.106672,10.6083871 C62.1619404,11.7790323 61.7420596,13.5532258 61.7420596,15.3632258 C61.7420596,17.1725806 62.1619404,18.9829032 63.106672,20.0825806 C64.0160954,21.1470968 65.3107276,21.6441935 66.8156183,21.6441935 C68.2852008,21.6441935 69.7547833,21.1116129 70.6295348,19.7990323 Z M67.3054791,5.25 C69.8944254,5.25 72.3790378,6.27903226 73.9888986,8.3016129 C75.4584811,10.2177419 76.1582823,12.7374194 76.1582823,15.3632258 C76.1582823,17.9532258 75.5634513,20.4019355 73.9888986,22.4248387 C72.4140278,24.376129 69.9647237,25.4764516 67.4451213,25.4764516 C65.4856779,25.4764516 63.6661948,24.943871 62.2319205,23.8793548 L62.2319205,29.9767742 L57.9978052,29.9767742 L57.9978052,5.78225806 L61.7420596,5.78225806 L61.7420596,7.23709677 C63.2463141,5.99516129 65.2057575,5.25 67.3054791,5.25 Z M82.5843658,-6.77626358e-21 L82.5843658,5.78225806 L88.1477853,5.78225806 L88.1477853,9.76258065 L82.5843658,9.76258065 L82.5843658,16.8887097 C82.5843658,18.3793548 82.5140676,19.5858065 82.9692565,20.3309677 C83.4241272,21.1116129 84.2635706,21.4309677 85.03367,21.5019355 C85.9784016,21.5729032 87.1330736,21.5019355 88.1477853,21.3603226 L88.1477853,24.943871 C86.7128748,25.3341935 84.3338688,25.3341935 82.9692565,25.086129 C81.2544254,24.8022581 80.1347435,24.1990323 79.15534,22.6729032 C78.2102903,21.1825806 78.3855586,19.3019355 78.3855586,17.1022581 L78.3855586,9.11774194 L78.3855586,5.78225806 L78.3855586,-6.77626358e-21 L82.5843658,-6.77626358e-21 Z M101.724215,19.4084194 C102.389344,18.2729355 102.389344,16.9245484 102.389344,15.5761613 C100.744493,15.8600323 98.8200398,16.214871 97.175507,16.6051935 C95.4959841,16.9600323 94.0613917,17.7761613 94.0613917,19.2668065 C94.0613917,20.7922903 95.3557058,21.8922903 97.1052087,21.8922903 C99.1349503,21.8922903 100.814791,20.8987419 101.724215,19.4084194 Z M104.138847,7.2726129 C105.95833,8.83390323 106.553161,11.0339032 106.553161,13.4113226 L106.553161,24.9439032 L102.879205,24.9439032 L102.879205,22.424871 C101.024732,24.7313226 99.0999602,25.4764839 96.1254871,25.4764839 C92.3468787,25.4764839 89.8972565,23.1697097 89.8972565,19.5858387 C89.8972565,17.1022903 90.8419881,15.2568065 93.2216302,14.121 C95.6009543,13.021 99.4848509,12.6306774 102.354036,12.204871 C102.109105,10.3955161 100.744493,9.29519355 98.400159,9.29519355 C96.5103777,9.29519355 94.831173,9.93390323 93.5012326,11.2826129 L91.0172565,8.44358065 C93.0113718,6.38551613 95.460994,5.25003226 98.7500596,5.25003226 C100.779483,5.25003226 102.808907,6.10164516 104.138847,7.2726129 Z M121.45301,19.7990323 C122.222791,18.6987097 122.502712,17.0664516 122.502712,15.3632258 C122.502712,13.6245161 122.152811,12.0274194 121.38303,10.9277419 C120.50796,9.61483871 119.143666,9.08225806 117.498815,9.08225806 C116.064541,9.08225806 114.76959,9.57903226 113.929829,10.6083871 C112.985097,11.7790323 112.565217,13.5532258 112.565217,15.3632258 C112.565217,17.1725806 112.985097,18.9829032 113.929829,20.0825806 C114.839571,21.1470968 116.134203,21.6441935 117.639093,21.6441935 C119.108676,21.6441935 120.578258,21.1116129 121.45301,19.7990323 Z M118.128636,5.25 C120.718219,5.25 123.202513,6.27903226 124.812374,8.3016129 C126.281638,10.2177419 126.981439,12.7374194 126.981439,15.3632258 C126.981439,17.9532258 126.386926,20.4019355 124.812374,22.4248387 C123.237185,24.376129 120.787881,25.4764516 118.268596,25.4764516 C116.064541,25.4764516 114.069789,24.8377419 112.565217,23.4890323 L112.565217,24.943871 L108.82128,24.943871 L108.82128,-6.77626358e-21 L113.055396,-6.77626358e-21 L113.055396,6.84677419 C114.48967,5.85322581 116.239173,5.25 118.128636,5.25 Z M129.210338,24.9438387 L129.210338,-3.22580645e-05 L133.409463,-3.22580645e-05 L133.409463,24.9438387 L129.210338,24.9438387 Z M140.197439,13.1985806 L149.539785,13.1985806 C149.469805,12.2050323 149.225193,11.3534194 148.665352,10.5727742 C147.825272,9.50825806 146.42567,8.976 144.991078,8.976 C143.591793,8.976 142.226863,9.43729032 141.212151,10.7147097 C140.65231,11.459871 140.337082,12.276 140.197439,13.1985806 Z M144.991078,5.24987097 C147.75561,5.24987097 149.994974,6.17245161 151.709487,8.26632258 C153.52897,10.4663226 154.018831,13.3405161 153.773901,16.569871 L140.127459,16.569871 C140.232429,17.7050323 140.51235,18.8408387 141.177161,19.692129 C142.051913,20.8634194 143.451515,21.4663226 144.991078,21.4663226 C146.14575,21.4663226 147.125789,21.1824516 147.895571,20.5795484 C148.665352,19.976 149.120223,19.3730968 149.400143,18.7340645 L153.56396,20.0118065 C152.899149,21.6085806 151.709487,23.0634194 150.239586,24.0214839 C148.805312,24.9440645 146.950521,25.4763226 145.201018,25.4763226 C142.402131,25.4763226 139.53231,24.3763226 137.853105,22.2827742 C136.313543,20.3663226 135.578433,17.9889032 135.578433,15.5763226 C135.578433,12.8437419 136.313543,10.2885806 137.853105,8.40825806 C139.567618,6.31470968 142.191873,5.24987097 144.991078,5.24987097 Z" id="adaptable"></path>
                </g>
            </g>
        </g>
    </g>
</svg>